<?xml version="1.0" encoding="UTF-8" standalone="no"?>
<svg
   xmlns:dc="http://purl.org/dc/elements/1.1/"
   xmlns:cc="http://creativecommons.org/ns#"
   xmlns:rdf="http://www.w3.org/1999/02/22-rdf-syntax-ns#"
   xmlns:svg="http://www.w3.org/2000/svg"
   xmlns="http://www.w3.org/2000/svg"
   xmlns:sodipodi="http://sodipodi.sourceforge.net/DTD/sodipodi-0.dtd"
   xmlns:inkscape="http://www.inkscape.org/namespaces/inkscape"
   id="Layer_1"
   data-name="Layer 1"
   viewBox="0 0 101 101"
   version="1.1"
   sodipodi:docname="Tilda_Icons_43_logistics_warehouse.svg"
   inkscape:version="0.92.3 (2405546, 2018-03-11)">
  <metadata
     id="metadata11">
    <rdf:RDF>
      <cc:Work
         rdf:about="">
        <dc:format>image/svg+xml</dc:format>
        <dc:type
           rdf:resource="http://purl.org/dc/dcmitype/StillImage" />
      </cc:Work>
    </rdf:RDF>
  </metadata>
  <defs
     id="defs9" />
  <sodipodi:namedview
     pagecolor="#ffffff"
     bordercolor="#666666"
     borderopacity="1"
     objecttolerance="10"
     gridtolerance="10"
     guidetolerance="10"
     inkscape:pageopacity="0"
     inkscape:pageshadow="2"
     inkscape:window-width="1600"
     inkscape:window-height="836"
     id="namedview7"
     showgrid="false"
     inkscape:zoom="2.3366337"
     inkscape:cx="50.5"
     inkscape:cy="50.5"
     inkscape:window-x="0"
     inkscape:window-y="27"
     inkscape:window-maximized="1"
     inkscape:current-layer="Layer_1" />
  <title
     id="title2">log_Artboard 2 copy 4</title>
  <path
     d="M88.38,32.29l-37-27a1.5,1.5,0,0,0-1.78,0l-36,27a1.5,1.5,0,0,0-.6,1.2v52A1.5,1.5,0,0,0,14.5,87h73A1.5,1.5,0,0,0,89,85.5v-52A1.5,1.5,0,0,0,88.38,32.29ZM75,65H59V50H75ZM56,84H41V68H56Zm3-16H75V84H59ZM75,47H57.5A1.5,1.5,0,0,0,56,48.5V65H39.5A1.5,1.5,0,0,0,38,66.5V84H28V40H75ZM86,84H78V38.5A1.5,1.5,0,0,0,76.5,37h-50A1.5,1.5,0,0,0,25,38.5V84H16V34.25L50.51,8.37,86,34.26Z"
     id="path4"
     style="fill:#1837ac;fill-opacity:1" />
</svg>
