<?xml version="1.0" encoding="UTF-8" standalone="no"?>
<svg
   xmlns:dc="http://purl.org/dc/elements/1.1/"
   xmlns:cc="http://creativecommons.org/ns#"
   xmlns:rdf="http://www.w3.org/1999/02/22-rdf-syntax-ns#"
   xmlns:svg="http://www.w3.org/2000/svg"
   xmlns="http://www.w3.org/2000/svg"
   xmlns:sodipodi="http://sodipodi.sourceforge.net/DTD/sodipodi-0.dtd"
   xmlns:inkscape="http://www.inkscape.org/namespaces/inkscape"
   id="Layer_1"
   data-name="Layer 1"
   viewBox="0 0 101 101"
   version="1.1"
   sodipodi:docname="Tilda_Icons_43_logistics_operator.svg"
   inkscape:version="0.92.3 (2405546, 2018-03-11)">
  <metadata
     id="metadata15">
    <rdf:RDF>
      <cc:Work
         rdf:about="">
        <dc:format>image/svg+xml</dc:format>
        <dc:type
           rdf:resource="http://purl.org/dc/dcmitype/StillImage" />
        <dc:title>log_Artboard 32 copy</dc:title>
      </cc:Work>
    </rdf:RDF>
  </metadata>
  <defs
     id="defs13" />
  <sodipodi:namedview
     pagecolor="#ffffff"
     bordercolor="#666666"
     borderopacity="1"
     objecttolerance="10"
     gridtolerance="10"
     guidetolerance="10"
     inkscape:pageopacity="0"
     inkscape:pageshadow="2"
     inkscape:window-width="814"
     inkscape:window-height="480"
     id="namedview11"
     showgrid="false"
     inkscape:zoom="2.3366337"
     inkscape:cx="50.5"
     inkscape:cy="50.5"
     inkscape:window-x="0"
     inkscape:window-y="27"
     inkscape:window-maximized="0"
     inkscape:current-layer="Layer_1" />
  <title
     id="title2">log_Artboard 32 copy</title>
  <path
     d="m 36.85,58.49 a 33,33 0 0 0 -33,33 1.5,1.5 0 0 0 1.5,1.5 h 63 a 1.5,1.5 0 0 0 1.5,-1.5 33,33 0 0 0 -33,-33 z M 6.88,90 a 30,30 0 0 1 59.93,0 z"
     id="path4"
     inkscape:connector-curvature="0" />
  <path
     d="m 36.3,16.93 a 19,19 0 1 0 19,19 19.07,19.07 0 0 0 -19,-19 z m 0,35.07 a 16,16 0 1 1 16,-16 16.07,16.07 0 0 1 -16,16 z"
     id="path6"
     inkscape:connector-curvature="0" />
  <path
     d="m 11.52,46 h 2 A 1.5,1.5 0 0 0 15,44.5 v -18 A 1.5,1.5 0 0 0 15,26.19 23.47,23.47 0 0 1 58,27 v 17.5 a 1.5,1.5 0 0 0 0,0.32 23.42,23.42 0 0 1 -5,7.65 1.5,1.5 0 1 0 2.13,2.11 26.39,26.39 0 0 0 5.68,-8.58 h 0.67 a 10.5,10.5 0 1 0 0,-21 h -1.09 a 26.46,26.46 0 0 0 -48.17,0 h -0.69 a 10.5,10.5 0 0 0 0,21 z M 69,35.5 A 7.51,7.51 0 0 1 61.5,43 H 61 V 28 h 0.48 A 7.51,7.51 0 0 1 69,35.5 Z M 11.52,28 H 12 v 15 h -0.48 a 7.5,7.5 0 0 1 0,-15 z"
     id="path8"
     inkscape:connector-curvature="0" />
</svg>
