<?xml version="1.0" encoding="UTF-8" standalone="no"?>
<!-- Created with Inkscape (http://www.inkscape.org/) -->

<svg
   xmlns:dc="http://purl.org/dc/elements/1.1/"
   xmlns:cc="http://creativecommons.org/ns#"
   xmlns:rdf="http://www.w3.org/1999/02/22-rdf-syntax-ns#"
   xmlns:svg="http://www.w3.org/2000/svg"
   xmlns="http://www.w3.org/2000/svg"
   xmlns:sodipodi="http://sodipodi.sourceforge.net/DTD/sodipodi-0.dtd"
   xmlns:inkscape="http://www.inkscape.org/namespaces/inkscape"
   version="1.1"
   id="svg2"
   width="512"
   height="512"
   viewBox="0 0 512 512"
   sodipodi:docname="client_img.svg"
   inkscape:version="0.92.3 (2405546, 2018-03-11)">
  <metadata
     id="metadata8">
    <rdf:RDF>
      <cc:Work
         rdf:about="">
        <dc:format>image/svg+xml</dc:format>
        <dc:type
           rdf:resource="http://purl.org/dc/dcmitype/StillImage" />
        <dc:title></dc:title>
      </cc:Work>
    </rdf:RDF>
  </metadata>
  <defs
     id="defs6" />
  <sodipodi:namedview
     pagecolor="#ffffff"
     bordercolor="#666666"
     borderopacity="1"
     objecttolerance="10"
     gridtolerance="10"
     guidetolerance="10"
     inkscape:pageopacity="0"
     inkscape:pageshadow="2"
     inkscape:window-width="1600"
     inkscape:window-height="836"
     id="namedview4"
     showgrid="false"
     inkscape:zoom="0.4609375"
     inkscape:cx="-158.37288"
     inkscape:cy="256"
     inkscape:window-x="0"
     inkscape:window-y="27"
     inkscape:window-maximized="1"
     inkscape:current-layer="svg2" />
  <path
     style="fill:#b3b3b3"
     d="m 208.67797,478.67333 c -22.4995,-3.60904 -42.75053,-13.66332 -59.31932,-29.45098 -17.33255,-16.51542 -24.72939,-30.23472 -36.11496,-66.98431 -9.74633,-31.45852 -10.94843,-37.8522 -10.25963,-54.56855 0.59647,-14.47602 2.18692,-21.52959 7.24103,-32.11369 6.63639,-13.89766 17.57709,-25.40711 30.20288,-31.77298 2.8875,-1.45586 5.25,-3.02809 5.25,-3.49385 0,-0.46575 -9.47848,-31.62067 -21.06328,-69.23315 -15.59685,-50.63842 -21.20884,-70.203 -21.62414,-75.38633 -2.5572,-31.916119 28.23673,-58.019609 58.99412,-50.008329 8.32782,2.16912 15.28785,6.01164 21.45677,11.84595 6.11705,5.78526 9.54305,11.12668 12.86023,20.05022 l 2.27209,6.112159 0.0521,-13.613509 c 0.0286,-7.48743 0.51142,-16.03548 1.07281,-18.99567 3.6458,-19.22423 20.29335,-35.11543 39.97881,-38.16246 24.67199,-3.81887 49.32332,13.60906 53.97977,38.16246 0.56486,2.97842 1.02072,20.11153 1.02072,38.362299 v 32.98014 l 2.25,-0.71947 c 1.2375,-0.39571 5.4,-1.41666 9.25,-2.26878 17.06816,-3.77766 36.67847,4.20406 46.94193,19.10615 l 3.72177,5.40384 4.40843,-1.32674 c 11.66756,-3.51142 23.01565,-2.6815 34.0705,2.49169 11.21759,5.24934 19.8404,15.15157 24.55074,28.19348 l 2.30663,6.38657 v 91.5 c 0,71.8616 -0.28199,92.78776 -1.31388,97.5 -10.03894,45.84402 -41.33203,77.86079 -87.18612,89.20236 -9.08977,2.24826 -111.87194,2.90729 -125,0.80148 z m 122.5,-32.90355 c 22.92326,-6.75328 41.21116,-21.84447 51.01824,-42.10029 7.94736,-16.4147 7.7875,-15.0752 8.2204,-68.88309 l 0.38524,-47.88308 -3.96477,3.14015 c -2.18062,1.72708 -7.04599,4.58289 -10.81194,6.34624 -8.78895,4.11529 -21.77612,5.04326 -31.96872,2.28425 -6.25098,-1.69206 -16.46842,-7.44114 -19.25089,-10.83196 -2.33057,-2.84011 -3.12756,-1.88745 -3.12756,3.7384 0,6.34455 -2.71143,15.71459 -6.33815,21.90313 -3.6577,6.24139 -13.18662,14.68942 -20.71692,18.36695 -3.7865,1.84919 -16.96326,5.8955 -31.94493,9.80963 -14.025,3.66419 -27.87515,7.33839 -30.77812,8.1649 l -5.27811,1.50274 3.02811,5.2926 c 4.97088,8.68818 3.91411,17.10151 -2.86449,22.80533 -5.99628,5.04553 -15.62306,4.33954 -20.76604,-1.52292 -3.99323,-4.55185 -18.36819,-31.12382 -19.02413,-35.16591 -0.75183,-4.633 1.11354,-9.62329 5.00823,-13.39818 3.05382,-2.95988 6.20136,-3.94094 44.23117,-13.78654 22.51886,-5.82994 42.51838,-11.40722 44.44338,-12.39395 6.46662,-3.31471 8.5,-6.4236 8.5,-12.99592 0,-4.34491 -0.52944,-6.55523 -2.06179,-8.60765 -3.65756,-4.8989 -7.18757,-6.87482 -12.25384,-6.85905 -4.9833,0.0155 -103.11268,12.76939 -111.86695,14.53936 -6.05153,1.22351 -16.05578,7.35402 -19.19483,11.7624 -7.07932,9.942 -10.01867,23.4872 -8.28273,38.16883 1.19901,10.14066 13.36261,52.08288 18.19574,62.74212 10.65195,23.49239 33.67099,40.70861 60.9644,45.59603 1.375,0.24622 26.8,0.3544 56.5,0.24039 48.31731,-0.18547 54.63141,-0.3933 60,-1.97491 z M 363.2769,267.26406 c 2.25441,-1.02383 4.99996,-3.15145 6.10123,-4.72804 1.10126,-1.57659 6.39967,-13.80648 11.77424,-27.17753 8.66989,-21.56925 9.71407,-24.82451 9.25874,-28.86424 -1.48727,-13.19498 -17.57866,-19.22467 -26.76125,-10.02784 -2.88864,2.89311 -21.87805,49.42356 -22.62879,55.44812 -0.71166,5.71097 2.99899,12.17106 8.61879,15.00496 5.39267,2.71937 8.24896,2.79154 13.63704,0.34457 z M 208.95532,250.66464 c 14.97246,-1.92767 28.58392,-3.72907 30.2477,-4.00312 2.90355,-0.47824 3.07253,-0.78935 4.2069,-7.74514 0.74859,-4.59026 4.50577,-15.67064 10.249,-30.22559 l 9.06716,-22.97871 -0.27406,-55.69871 c -0.26804,-54.476759 -0.31928,-55.759269 -2.33584,-58.459499 -3.91865,-5.2472 -7.11441,-6.88438 -13.43821,-6.88438 -6.32392,0 -9.51979,1.63729 -13.43821,6.88459 -2.02896,2.71705 -2.06609,3.85068 -2.33204,71.188219 l -0.27025,68.42719 h -5.81694 c -3.55971,0 -9.64578,1.14955 -15.68398,2.96243 -5.42688,1.62933 -9.93183,2.86683 -10.011,2.75 -0.0792,-0.11684 -7.64269,-25.18743 -16.80782,-55.71243 -9.16512,-30.525 -17.48732,-56.625 -18.49376,-58 -6.84148,-9.346819 -19.40184,-9.335629 -26.33016,0.0234 -4.2454,5.73488 -4.32664,5.37706 18.23909,80.3302 20.35863,67.62218 21.37037,70.6464 23.63445,70.6464 1.30093,0 14.61552,-1.57718 29.58797,-3.50485 z m 108.38992,-28.56071 c 6.692,-16.73894 12.46394,-32.09168 12.82654,-34.1172 0.86863,-4.85231 -2.14066,-11.71753 -6.49552,-14.81845 -4.75837,-3.38826 -11.77096,-3.81655 -16.74226,-1.02253 -2.1649,1.21674 -4.6389,3.40734 -5.4978,4.868 -1.66832,2.83718 -24.52763,58.91445 -25.77225,63.22314 -0.72477,2.50901 -0.58654,2.594 6.07787,3.73682 6.85866,1.17613 15.72128,4.61882 19.43615,7.55 1.1,0.86794 2.45,1.45131 3,1.29637 0.55,-0.15494 6.47527,-13.97721 13.16727,-30.71615 z"
     id="path817"
     inkscape:connector-curvature="0" />
</svg>
