<svg id="Logo" xmlns="http://www.w3.org/2000/svg" width="168.907" height="47.469" viewBox="0 0 168.907 47.469">
  <defs>
    <style>
      .cls-1 {
        fill: #3f3f3f;
      }

      .cls-1, .cls-2 {
        fill-rule: evenodd;
      }

      .cls-2 {
        fill: #1837ac;
      }
    </style>
  </defs>
  <path id="logo-2" data-name="logo" class="cls-1" d="M407.207,71.569h-1.291v15.16h8.777V85.646h-7.486V71.569Zm29.249,6.591a8.582,8.582,0,0,0-.76-3.571,5.542,5.542,0,0,0-2.067-2.384,6.032,6.032,0,0,0-6.179.016,5.6,5.6,0,0,0-2.077,2.457,8.7,8.7,0,0,0-.735,3.67v1.562a7.6,7.6,0,0,0,1.635,5.128,5.386,5.386,0,0,0,4.29,1.9,5.66,5.66,0,0,0,3.1-.854,5.519,5.519,0,0,0,2.066-2.436,8.75,8.75,0,0,0,.724-3.675V78.16Zm-1.281,1.77a6.879,6.879,0,0,1-1.218,4.337,4.459,4.459,0,0,1-6.788-.021,6.7,6.7,0,0,1-1.25-4.274V78.389a6.751,6.751,0,0,1,1.255-4.347,4.455,4.455,0,0,1,6.762-.005,6.7,6.7,0,0,1,1.239,4.29v1.6Zm24.314-.4h-5.351v1.083h4.071v3.915a3.062,3.062,0,0,1-1.146.8,7.043,7.043,0,0,1-2.842.521,4.459,4.459,0,0,1-2.525-.729,4.667,4.667,0,0,1-1.687-2.058,7.491,7.491,0,0,1-.588-3.058V78.217a6.55,6.55,0,0,1,1.239-4.262,4.119,4.119,0,0,1,3.363-1.511,4.373,4.373,0,0,1,2.816.862,3.928,3.928,0,0,1,1.359,2.533h1.281a4.923,4.923,0,0,0-1.7-3.285,5.686,5.686,0,0,0-3.769-1.192,5.392,5.392,0,0,0-4.28,1.827,7.322,7.322,0,0,0-1.593,4.982v1.916a8.181,8.181,0,0,0,.771,3.582,5.672,5.672,0,0,0,2.145,2.416,5.905,5.905,0,0,0,3.165.854,9.036,9.036,0,0,0,3.181-.531,4.29,4.29,0,0,0,2.087-1.479V79.535ZM473.4,71.569h-1.281v15.16H473.4V71.569Zm19.4,13.5a4.721,4.721,0,0,1-2.842.781,5.066,5.066,0,0,1-3.186-.927,3.025,3.025,0,0,1-1.2-2.53H484.3a4.136,4.136,0,0,0,.692,2.364,4.493,4.493,0,0,0,2.03,1.6,7.4,7.4,0,0,0,2.942.573,6.1,6.1,0,0,0,3.774-1.083,3.428,3.428,0,0,0,1.432-2.874,3.583,3.583,0,0,0-.531-1.968,4.411,4.411,0,0,0-1.583-1.432,13.951,13.951,0,0,0-3.092-1.157,8.589,8.589,0,0,1-2.968-1.288,2.293,2.293,0,0,1-.926-1.888,2.424,2.424,0,0,1,1.03-2.028,4.5,4.5,0,0,1,2.77-.777,4.134,4.134,0,0,1,2.853.945,3.185,3.185,0,0,1,1.062,2.5h1.291a4.269,4.269,0,0,0-.656-2.322,4.419,4.419,0,0,0-1.848-1.624,6.073,6.073,0,0,0-2.7-.583,5.878,5.878,0,0,0-3.66,1.088,3.5,3.5,0,0,0,.11,5.721,11.338,11.338,0,0,0,3.435,1.442,9.362,9.362,0,0,1,3.239,1.4A2.607,2.607,0,0,1,492.8,85.074Zm24.429-13.5H505.568v1.083h5.185V86.729h1.281V72.652h5.2V71.569Zm12.923,0h-1.281v15.16h1.281V71.569ZM551.489,82a4.619,4.619,0,0,1-1.26,2.889,4.262,4.262,0,0,1-3.03.963,3.839,3.839,0,0,1-3.222-1.563,6.736,6.736,0,0,1-1.192-4.189V78.248a6.686,6.686,0,0,1,1.223-4.262,3.976,3.976,0,0,1,3.285-1.542q3.717,0,4.2,3.863h1.291a5.5,5.5,0,0,0-1.64-3.634,5.428,5.428,0,0,0-3.847-1.312,5.551,5.551,0,0,0-3.056.849,5.446,5.446,0,0,0-2.036,2.41,8.591,8.591,0,0,0-.708,3.582V80.17a8.513,8.513,0,0,0,.719,3.535,5.5,5.5,0,0,0,2,2.39,5.348,5.348,0,0,0,2.983.843,5.665,5.665,0,0,0,3.868-1.27A5.432,5.432,0,0,0,552.78,82h-1.291ZM571.2,85.074a4.724,4.724,0,0,1-2.843.781,5.066,5.066,0,0,1-3.186-.927,3.027,3.027,0,0,1-1.2-2.53h-1.281a4.137,4.137,0,0,0,.693,2.364,4.488,4.488,0,0,0,2.03,1.6,7.4,7.4,0,0,0,2.941.573,6.1,6.1,0,0,0,3.775-1.083,3.427,3.427,0,0,0,1.431-2.874,3.583,3.583,0,0,0-.531-1.968,4.407,4.407,0,0,0-1.582-1.432,13.962,13.962,0,0,0-3.093-1.157,8.591,8.591,0,0,1-2.967-1.288,2.294,2.294,0,0,1-.927-1.888,2.425,2.425,0,0,1,1.031-2.028,4.493,4.493,0,0,1,2.77-.777,4.133,4.133,0,0,1,2.852.945,3.185,3.185,0,0,1,1.062,2.5h1.292a4.269,4.269,0,0,0-.656-2.322,4.428,4.428,0,0,0-1.849-1.624,6.066,6.066,0,0,0-2.7-.583,5.878,5.878,0,0,0-3.66,1.088,3.5,3.5,0,0,0,.109,5.721,11.346,11.346,0,0,0,3.436,1.442,9.346,9.346,0,0,1,3.238,1.4A2.608,2.608,0,0,1,571.2,85.074Z" transform="translate(-405.906 -39.469)"/>
  <path id="logo-3" data-name="logo" class="cls-2" d="M410.97,39.793h-4.833V63.729h4.833V39.793Zm21.307,0H427.46V55.509l-7.086-15.717h-4.833V63.729h4.833v-15.7l7.069,15.7h4.834V39.793Zm20.845,0h-4.817V55.509L441.22,39.793h-4.834V63.729h4.834v-15.7l7.069,15.7h4.833V39.793Zm20.961,10.028q-0.033-4.915-2.334-7.636a8.651,8.651,0,0,0-12.643.049q-2.284,2.77-2.285,7.7V54.03q0.033,4.751,2.335,7.39a7.959,7.959,0,0,0,6.329,2.639,7.871,7.871,0,0,0,6.321-2.663q2.277-2.663,2.277-7.48V49.821Zm-4.85,4.242a8.728,8.728,0,0,1-.937,4.513,3.1,3.1,0,0,1-2.811,1.455,3.177,3.177,0,0,1-2.893-1.488,8.9,8.9,0,0,1-.937-4.628V49.657a9.328,9.328,0,0,1,.953-4.628,3.4,3.4,0,0,1,5.7.057,9.839,9.839,0,0,1,.92,4.817v4.159ZM481.5,39.793h-5.359l6.855,23.936h5.031l6.9-23.936h-5.392l-4.028,17.36Zm26.929,23.936h5.162l-7.529-23.936h-4.423l-7.48,23.936h5.113l1.282-4.9h6.593ZM503.839,46.27l2.236,8.532H501.6Zm26.255-6.477H513.506v4.028h5.82V63.729h4.849V43.821h5.919V39.793Zm7.184,0h-4.833V63.729h4.833V39.793Zm8.351,0H540.27l6.855,23.936h5.031l6.905-23.936h-5.393l-4.027,17.36Zm27.817,9.683h-7.53V43.821h8.878V39.793H561.083V63.729h13.743V59.718h-8.91V53.372h7.53v-3.9Z" transform="translate(-405.906 -39.469)"/>
</svg>
