<svg xmlns="http://www.w3.org/2000/svg" width="27.563" height="18.13" viewBox="0 0 27.563 18.13">
  <defs>
    <style>
      .cls-1 {
        fill: #bfbfbf;
        fill-rule: evenodd;
      }
    </style>
  </defs>
  <path id="_" data-name="“" class="cls-1" d="M406.972,3890.47a10.569,10.569,0,0,0-2.338,6.56,7.114,7.114,0,0,0,1.9,5.03,5.707,5.707,0,0,0,4.254,2.04,4.559,4.559,0,0,0,3.234-1.22,3.824,3.824,0,0,0,1.3-2.9,3.574,3.574,0,0,0-1.072-2.62,3.459,3.459,0,0,0-2.514-1.07,4.545,4.545,0,0,0-1.406.26,3.994,3.994,0,0,1-1.23.27,0.928,0.928,0,0,1-.774-0.49,2.936,2.936,0,0,1-.351-1.69,6.193,6.193,0,0,1,1.336-3.83,13.188,13.188,0,0,1,4.429-3.38v-1.44A13.548,13.548,0,0,0,406.972,3890.47Zm16.857-.07a10.746,10.746,0,0,0-2.355,6.74,7.052,7.052,0,0,0,1.863,4.99,5.622,5.622,0,0,0,4.183,2,4.7,4.7,0,0,0,3.323-1.26,3.973,3.973,0,0,0,1.353-2.99,3.4,3.4,0,0,0-1.072-2.55,3.509,3.509,0,0,0-2.514-1.04,4.688,4.688,0,0,0-1.547.28,3.71,3.71,0,0,1-1.16.28,1.053,1.053,0,0,1-.808-0.49,2.357,2.357,0,0,1-.387-1.47,6.48,6.48,0,0,1,1.125-3.8,14.781,14.781,0,0,1,4.676-3.66v-1.33A12.651,12.651,0,0,0,423.829,3890.4Z" transform="translate(-404.625 -3886)"/>
</svg>
